<svg fill="currentColor" xmlns="http://www.w3.org/2000/svg" xmlns:xlink="http://www.w3.org/1999/xlink" version="1.1" x="0px" y="0px" viewBox="0 0 100 100" enable-background="new 0 0 100 100" xml:space="preserve"><path d="M50.5,78c14.2,0,25.8-11.6,25.8-25.8c0-1.3-0.1-2.6-0.3-3.8c0.2-1.3,0.3-2.5,0.3-3.8c0-14.2-11.6-25.8-25.8-25.8  S24.6,30.3,24.6,44.5c0,1.3,0.1,2.6,0.3,3.8c-0.2,1.3-0.3,2.5-0.3,3.8C24.6,66.4,36.2,78,50.5,78z M75.3,52.2  C75.3,65.9,64.2,77,50.5,77S25.6,65.9,25.6,52.2c0-13.7,11.1-24.8,24.8-24.8c9.5,0,17.2,7.7,17.2,17.2c0,0.5,0,1-0.1,1.5  c-2.6-7.1-9.4-12-17.1-12c-8.6,0-15.9,6.1-17.7,14.2c0,0,0,0.1,0,0.1c-0.3,1.3-0.4,2.5-0.4,3.9c0,10,8.1,18.2,18.2,18.2  c11.8,0,21.7-7.9,24.8-18.7C75.3,51.8,75.3,52,75.3,52.2z M67.2,48.3c-1.7,7.6-8.6,13.4-16.7,13.4c-7.9,0-15-5.6-16.7-13.3  C35.5,40.7,42.3,35,50.5,35C58.4,35,65.4,40.6,67.2,48.3z M25.6,44.5c0-13.7,11.1-24.8,24.8-24.8s24.8,11.1,24.8,24.8  c0,13.7-11.1,24.8-24.8,24.8c-9.5,0-17.2-7.7-17.2-17.2c0-0.5,0-1,0.1-1.5c2.6,7.1,9.4,12,17.1,12c8.6,0,15.9-6.1,17.7-14.2  c0,0,0-0.1,0-0.1c0.3-1.3,0.4-2.5,0.4-3.9c0-10-8.1-18.2-18.2-18.2c-11.8,0-21.7,7.9-24.8,18.7C25.7,44.8,25.6,44.7,25.6,44.5z"></path></svg>