<svg xmlns="http://www.w3.org/2000/svg" xmlns:xlink="http://www.w3.org/1999/xlink" width="192" height="192"><defs><path d="M175.38.06l.73.07.73.1.7.13.7.16.7.18.68.2.67.24.66.26.64.3.63.3.6.33.6.36.6.38.57.4.55.42.54.45.52.46.5.48.48.5.46.52.45.54.42.55.4.57.38.6.36.6.33.6.3.63.3.64.26.66.24.67.2.68.18.7.16.7.13.7.1.73.07.73.04.73.02.75-.06 157.28-.07.73-.1.73-.13.7-.16.7-.18.7-.2.68-.24.67-.26.66-.3.64-.3.63-.33.6-.36.6-.38.6-.4.57-.42.55-.45.54-.46.52-.48.5-.5.48-.52.46-.54.45-.55.42-.57.4-.6.38-.6.36-.6.33-.63.3-.64.3-.66.26-.67.24-.68.2-.7.18-.7.16-.7.13-.73.1-.73.07-.73.04-.75.02H18.1l-.75-.02-.73-.04-.73-.07-.73-.1-.7-.13-.7-.16-.7-.18-.68-.2-.67-.24-.66-.26-.64-.3-.63-.3-.6-.33-.6-.36-.6-.38-.57-.4-.55-.42-.54-.45-.52-.46-.5-.48-.48-.5-.46-.52-.45-.54-.42-.55-.4-.57-.38-.6-.36-.6-.33-.6-.3-.63-.3-.64-.26-.66-.24-.67-.2-.68-.18-.7-.16-.7-.13-.7-.1-.73-.07-.73-.04-.73-.02-.75.02-156.55.04-.73.07-.73.1-.73.13-.7.16-.7.18-.7.2-.68.24-.67.26-.66.3-.64.3-.63.33-.6.36-.6.38-.6.4-.57.42-.55.45-.54.46-.52.48-.5.5-.48.52-.46.54-.45.55-.42.57-.4.6-.38.6-.36.6-.33.63-.3.64-.3.66-.26.67-.24.68-.2.7-.18.7-.16.7-.13.73-.1.73-.07.73-.04.75-.02 157.28.06zM54.65 12.12l-.34.07-.33.1-.33.12-.3.15-.3.17-.28.2-.28.2-.25.24-.24.26-.2.28-.2.3-.16.32-.15.34-.1.35-.08.37-.05.4-.02.4.03 120.68.06.36.04.17.1.34.06.17.06.16.07.16.08.16.1.15.08.15.1.15.2.28.1.13.12.13.24.24.13.12.13.1.28.2.15.1.15.08.15.1.16.08.16.07.16.06.17.06.34.1.17.04.36.06.18.02h.18l81.74-.03.36-.06.17-.04.34-.1.17-.06.16-.06.16-.07.16-.08.15-.1.15-.08.15-.1.28-.2.13-.1.13-.12.24-.24.12-.13.1-.13.2-.28.1-.15.08-.15.1-.15.08-.16.07-.16.06-.16.06-.17.1-.34.04-.17.06-.36.02-.18v-.18l-.03-81.74-.06-.36-.04-.17-.1-.34-.06-.17-.06-.16-.07-.16-.08-.16-.1-.15-.08-.15-.1-.15-.2-.28-.1-.13-.12-.13-.24-.24-.13-.12-.13-.1-.28-.2-.15-.1-.15-.08-.15-.1-.16-.08-.16-.07-.16-.06-.17-.06-.34-.1-.17-.04-.36-.06-.18-.02h-.18-41.32.03l.1-.05.02-.02.01-.02h.02l.03-.06.01-.03v-.02-.02-.1-.02-.03l-.02-.04-.02-.02-.01-.02-37.5-37.48-.3-.24-.33-.2-.33-.17-.33-.14-.35-.1-.34-.07-.35-.05-.35-.01-.35.01-.35.04z" id="A"/></defs><use xlink:href="#A" fill="#414d59"/></svg>