<svg xmlns="http://www.w3.org/2000/svg" width="100" height="50" fill="#414d59"><path d="M.6.867q2.4-.4 4.733-.4 2.267 0 4.667.4v35q0 2.067.2 3.333.267 1.267.733 2 .533.667 1.333.933.8.267 2 .267.533 0 1.133-.067.667-.067 1.267-.2.733 2.733.733 5.333 0 .533 0 1 0 .4-.133.933-1.067.333-2.6.467Q13.2 50 11.933 50 6.8 50 3.666 47.2.6 44.333.6 37.933zm23.747 21.466H19.88q-.2-.867-.333-1.8-.067-1-.067-1.867 0-1.8.4-3.533h13.733V49.6q-2.4.4-4.667.4-2.2 0-4.6-.4zm-1.4-13q-.4-2.267-.4-4.467 0-2.133.4-4.467 1.133-.2 2.4-.267Q26.68 0 27.747 0q1.133 0 2.467.133Q31.547.2 32.68.4q.2 1.133.267 2.267.067 1.067.067 2.2 0 1.067-.067 2.2-.067 1.133-.267 2.267-1.133.2-2.467.267-1.267.067-2.4.067-1.067 0-2.4-.067-1.333-.067-2.467-.267zM42.323.867Q44.6.467 47 .467q2.4 0 4.733.4V49.6Q49.4 50 47 50q-2.4 0-4.667-.4zm10.733 30.667l8.533-16.4q2.6-.4 5.267-.4 2.533 0 4.933.4L63 31.067 73.257 49.6Q70.523 50 68 50q-2.333 0-4.933-.4zm25.544-16.4q1-.2 1.867-.267.933-.133 2-.133 1 0 1.933.133 1 .133 1.933.333.2.333.333 1 .2.6.333 1.333.133.667.2 1.4.133.667.2 1.133Q88.867 18 91 16.4q2.133-1.667 5.333-1.667.667 0 1.533.067.867.067 1.267.2.133.667.2 1.533.067.867.067 1.8 0 1.133-.133 2.467-.067 1.333-.333 2.533-.733-.133-1.667-.133-.867 0-1.067 0-1.133 0-2.533.267-1.4.2-2.667 1.2-1.267 1-2.133 3-.8 2-.8 5.6v16.4q-1.2.2-2.4.267-1.2.067-2.333.067Q82.2 50 81 49.933q-1.133-.067-2.4-.267z"/></svg>