<svg xmlns="http://www.w3.org/2000/svg" xmlns:xlink="http://www.w3.org/1999/xlink" viewBox="0 0 448 433"><radialGradient id="A" gradientUnits="userSpaceOnUse" cy="393.79" cx="216.7" r="296.7"><stop stop-color="#f4d708" offset="0"/><stop stop-color="#fcb400" offset="1"/></radialGradient><use xlink:href="#B" fill="url(#A)"/><use xlink:href="#B" stroke="#e2a713" stroke-width="5" fill="none"/><path d="M212.5 292.63l-19.75-129.45c0-7.703 2.55-13.926 7.66-18.676s10.87-7.12 17.293-7.12c6.95 0 12.82 2.535 17.6 7.598s7.188 11.023 7.188 17.883c0 6.543-6.668 49.8-20 129.77h-10zm27 38.17c0 6.098-2.156 11.3-6.47 15.613s-9.46 6.465-15.453 6.465c-6.098 0-11.3-2.156-15.613-6.465s-6.465-9.516-6.465-15.613c0-5.992 2.152-11.14 6.465-15.453s9.516-6.47 15.613-6.47c5.992 0 11.14 2.156 15.453 6.47s6.48 9.45 6.48 15.44z"/><defs><path id="B" d="M8.55 390.5L193.4 21.7s26.4-31.504 52.815 0 180.2 370.65 180.2 370.65 3.105 18.534-27.96 18.534H36.505s-23.3 0-27.96-20.38z"/></defs></svg>